<svg id="Layer_1" data-name="Layer 1" xmlns="http://www.w3.org/2000/svg" viewBox="0 0 128 128"><path d="M0,28.54H0V128H128v0h0V28.54Z" fill="#869f75"/><g opacity="0.33"><path d="M128,27.61V23.25a61.93,61.93,0,0,0-17.9-2.39c-10.75,0-8.72,2.39-24.83,2.39S66.86,21.4,52.1,20,32.6,22.58,20,20,0,23.25,0,23.25V37.8s10.87.35,16.43,0,15.42,1.28,25.75,1.8,35.76-1.8,35.76-1.8a217.2,217.2,0,0,1,27.34,1.8,93.27,93.27,0,0,0,22.72.52Z" fill="#474a48"/></g><path d="M20,26.06c12.55,4.28,17.39.83,32.15,3.16s17-3.16,33.08-3.16,18.82,2,29.57,2,13.16-2,13.16-2V0H0V26.06S7.49,21.79,20,26.06Z" fill="#7a7567"/><path d="M128,23.34V19a61.93,61.93,0,0,0-17.9-2.39c-10.75,0-8.72,2.39-24.83,2.39S66.86,17.13,52.1,15.7,32.6,18.32,20,15.7,0,19,0,19V33.53s10.87.36,16.43,0,15.42,1.29,25.75,1.8,35.76-1.8,35.76-1.8a217.2,217.2,0,0,1,27.34,1.8A74.05,74.05,0,0,0,128,35.09Z" fill="#677f62"/><path d="M99.38,103.41a5.93,5.93,0,0,1,1.2-2.58,19.53,19.53,0,0,1,3.15-3.4" fill="#a6b59e"/><path d="M99.66,103.09a21.76,21.76,0,0,0-1.36-8.22" fill="#a6b59e"/><path d="M99.54,102.52a21.6,21.6,0,0,0-2.22-2.83,3.13,3.13,0,0,0-1.38-1" fill="#a6b59e"/><path d="M50.35,64.92a11.81,11.81,0,0,1,2.42-5.15A38.27,38.27,0,0,1,59.06,53" fill="#a6b59e"/><path d="M50.92,64.29A43.68,43.68,0,0,0,48.2,47.85" fill="#a6b59e"/><path d="M50.68,63.15a42.65,42.65,0,0,0-4.44-5.67,6.11,6.11,0,0,0-2.76-2" fill="#a6b59e"/><path d="M23.87,119.66a9.06,9.06,0,0,1,1.81-3.87,28.19,28.19,0,0,1,4.73-5.09" fill="#bdb88e"/><path d="M24.3,119.18a32.53,32.53,0,0,0-2-12.32" fill="#bdb88e"/><path d="M24.12,118.33a31.8,31.8,0,0,0-3.33-4.25,4.65,4.65,0,0,0-2.07-1.48" fill="#bdb88e"/><g opacity="0.33"><ellipse cx="56.22" cy="104.52" rx="10.9" ry="3.66" fill="#696c6a"/><ellipse cx="88.29" cy="64.86" rx="8.1" ry="2.09" fill="#696c6a"/></g><g opacity="0.33"><ellipse cx="55.37" cy="103.67" rx="10.9" ry="3.66" fill="#cfd6c5"/><ellipse cx="87.44" cy="64.01" rx="8.1" ry="2.09" fill="#cfd6c5"/></g></svg>