<svg id="Layer_1" data-name="Layer 1" xmlns="http://www.w3.org/2000/svg" viewBox="0 0 128 128"><polygon points="128 96.45 128 57 128 28.53 0 28.53 0 28.55 0 82.36 0 128 128 128 128 96.45" fill="#869f75"/><g opacity="0.33"><path d="M114.36,20.85c-10.74,0-8.71,2.39-24.82,2.39S71.12,21.39,56.36,20a69.6,69.6,0,0,0-16.25.38c-4.83.53-9.25,1-15.8-.38l-.64-.13a2.37,2.37,0,0,0-2.82,2.31v0c0,8,1.33,8.93,2,15.57A91.94,91.94,0,0,1,23.24,47c0,16.1-1.85,18.41-3.28,33.17s2.62,19.5,0,32.05S33.52,128,33.52,128h4.27a120.9,120.9,0,0,0,0-12.16c-.36-5.57,1.29-15.42,1.8-25.75s-1.8-35.76-1.8-35.76,0-5.16.35-11.89a3.33,3.33,0,0,1,3.58-3.15c1.55.12,3.13.22,4.72.3,10.34.52,17.57-3.24,35.77-1.8s15.11,3.74,27.34,1.8A132.48,132.48,0,0,1,128,37.79V22.17S125.11,20.85,114.36,20.85Z" fill="#474a48"/></g><path d="M90.74,88.93a13.14,13.14,0,0,0-2.65-5.64,41.15,41.15,0,0,0-6.89-7.43" fill="#bdb88e"/><path d="M90.11,88.24a47.59,47.59,0,0,1,3-18" fill="#bdb88e"/><path d="M90.38,87a45.37,45.37,0,0,1,4.85-6.2,6.77,6.77,0,0,1,3-2.16" fill="#bdb88e"/><path d="M26.06,0H0V128H26.06s-4.28-7.49,0-20,.82-17.39,3.16-32.15-3.16-17-3.16-33.08a123.76,123.76,0,0,1,.78-14.92c8.11,1.36,13.57-.46,25.35,1.41,14.76,2.34,17-3.16,33.08-3.16s18.82,2,29.57,2,13.16-2,13.16-2V0Z" fill="#7a7567"/><path d="M110.1,16.58c-10.75,0-8.72,2.39-24.83,2.39S66.86,17.12,52.1,15.69a69.69,69.69,0,0,0-16.26.38c-4.83.54-9.25,1-15.8-.38l-.67-.13a2.36,2.36,0,0,0-2.79,2.31v0c0,8,1.33,8.93,2,15.58A91.72,91.72,0,0,1,19,42.73c0,16.11-1.85,18.41-3.28,33.17s2.62,19.5,0,32.06S19,128,19,128H33.52s.36-10.87,0-16.43,1.29-15.42,1.81-25.75-1.81-35.76-1.81-35.76,0-5.2.36-12A3.25,3.25,0,0,1,37.38,35c1.58.13,3.18.24,4.8.32,10.33.51,25-1.8,31.88-2.1s19,4.23,31.22,2.1A127.85,127.85,0,0,1,128,33.52V19A61.93,61.93,0,0,0,110.1,16.58Z" fill="#677f62"/><ellipse cx="96.29" cy="100.85" rx="6.21" ry="2.09" fill="#696c6a" opacity="0.33"/><ellipse cx="54.41" cy="72.05" rx="8.1" ry="2.09" fill="#696c6a" opacity="0.33"/><ellipse cx="95.44" cy="100" rx="6.21" ry="2.09" fill="#cfd6c5" opacity="0.33"/><ellipse cx="53.56" cy="71.2" rx="8.1" ry="2.09" fill="#cfd6c5" opacity="0.33"/><polygon points="128 96.45 128 57 128 28.53 0 28.53 0 28.55 0 82.36 0 128 128 128 128 96.45" fill="#869f75"/><g opacity="0.33"><path d="M114.36,20.85c-10.74,0-8.71,2.39-24.82,2.39S71.12,21.39,56.36,20a69.6,69.6,0,0,0-16.25.38c-4.83.53-9.25,1-15.8-.38l-.64-.13a2.37,2.37,0,0,0-2.82,2.31v0c0,8,1.33,8.93,2,15.57A91.94,91.94,0,0,1,23.24,47c0,16.1-1.85,18.41-3.28,33.17s2.62,19.5,0,32.05S33.52,128,33.52,128h4.27a120.9,120.9,0,0,0,0-12.16c-.36-5.57,1.29-15.42,1.8-25.75s-1.8-35.76-1.8-35.76,0-5.16.35-11.89a3.33,3.33,0,0,1,3.58-3.15c1.55.12,3.13.22,4.72.3,10.34.52,17.57-3.24,35.77-1.8s15.11,3.74,27.34,1.8A132.48,132.48,0,0,1,128,37.79V22.17S125.11,20.85,114.36,20.85Z" fill="#474a48"/></g><path d="M90.74,88.93a13.14,13.14,0,0,0-2.65-5.64,41.15,41.15,0,0,0-6.89-7.43" fill="#bdb88e"/><path d="M90.11,88.24a47.59,47.59,0,0,1,3-18" fill="#bdb88e"/><path d="M90.38,87a45.37,45.37,0,0,1,4.85-6.2,6.77,6.77,0,0,1,3-2.16" fill="#bdb88e"/><path d="M26.06,0H0V128H26.06s-4.28-7.49,0-20,.82-17.39,3.16-32.15-3.16-17-3.16-33.08a123.76,123.76,0,0,1,.78-14.92c8.11,1.36,13.57-.46,25.35,1.41,14.76,2.34,17-3.16,33.08-3.16s18.82,2,29.57,2,13.16-2,13.16-2V0Z" fill="#7a7567"/><path d="M110.1,16.58c-10.75,0-8.72,2.39-24.83,2.39S66.86,17.12,52.1,15.69a69.69,69.69,0,0,0-16.26.38c-4.83.54-9.25,1-15.8-.38l-.67-.13a2.36,2.36,0,0,0-2.79,2.31v0c0,8,1.33,8.93,2,15.58A91.72,91.72,0,0,1,19,42.73c0,16.11-1.85,18.41-3.28,33.17s2.62,19.5,0,32.06S19,128,19,128H33.52s.36-10.87,0-16.43,1.29-15.42,1.81-25.75-1.81-35.76-1.81-35.76,0-5.2.36-12A3.25,3.25,0,0,1,37.38,35c1.58.13,3.18.24,4.8.32,10.33.51,25-1.8,31.88-2.1s19,4.23,31.22,2.1A127.85,127.85,0,0,1,128,33.52V19A61.93,61.93,0,0,0,110.1,16.58Z" fill="#677f62"/><ellipse cx="96.29" cy="100.85" rx="6.21" ry="2.09" fill="#696c6a" opacity="0.33"/><ellipse cx="54.41" cy="72.05" rx="8.1" ry="2.09" fill="#696c6a" opacity="0.33"/><ellipse cx="95.44" cy="100" rx="6.21" ry="2.09" fill="#cfd6c5" opacity="0.33"/><ellipse cx="53.56" cy="71.2" rx="8.1" ry="2.09" fill="#cfd6c5" opacity="0.33"/></svg>