<svg id="Layer_1" data-name="Layer 1" xmlns="http://www.w3.org/2000/svg" viewBox="0 0 128 128"><path d="M129.7,0H0C-.12,0,0,5.83,0,5.83V99.48L128,102l.16-2.49V45.68L128,0Z" fill="#869f75"/><g opacity="0.33"><path d="M.05,101.56v4.36a61.81,61.81,0,0,0,17.89,2.39c10.74,0,8.71-2.39,24.81-2.39s18.41,1.85,33.16,3.28,19.49-2.62,32,0,20-3.28,20-3.28v-4.36l.16-11.08s-10.92,2.25-16.58.9c-5.42-1.29-16.32-6.08-25.74-1.8-11.82,5.36-35.74,1.8-35.74,1.8a47.19,47.19,0,0,0-27.33-1.8A78.49,78.49,0,0,1,0,91.48Z" fill="#474a48"/></g><g opacity="0.33"><ellipse cx="33.09" cy="71.34" rx="15.44" ry="5.19" fill="#696c6a"/><ellipse cx="58.81" cy="19.26" rx="6.2" ry="2.08" fill="#696c6a"/><ellipse cx="107" cy="45.99" rx="6.2" ry="2.08" fill="#696c6a"/></g><path d="M108,102c-12.55-4.27-17.38-.83-32.13-3.16S58.85,102,42.75,102s-18.81-2-29.55-2S.05,102,.05,102v26H128V102S120.49,106.23,108,102Z" fill="#7a7567"/><path d="M0,104.68V109s6.51-2.16,17.9,2.39c10,4,16.79-.91,24.82-2.39,15.84-2.92,20,3.59,33.17,3.28,14.82-.35,22.8,5.5,32.05,0S128,109,128,109V94.49s-10.87,1.43-16.43,0c-5.39-1.38-6.37-7.28-25.74-1.8-17,4.82-35.76,1.8-35.76,1.8s-15.69-6-27.33-1.8A41.74,41.74,0,0,1,0,94.49Z" fill="#677f62"/><g opacity="0.33"><ellipse cx="32.09" cy="70.34" rx="15.44" ry="5.19" fill="#cfd6c5"/><ellipse cx="57.81" cy="18.26" rx="6.2" ry="2.08" fill="#cfd6c5"/><ellipse cx="106" cy="44.99" rx="6.2" ry="2.08" fill="#cfd6c5"/></g><path d="M27,39.58a15,15,0,0,1,3-6.44,47.28,47.28,0,0,1,7.87-8.49" fill="#bdb88e"/><path d="M27.75,38.79a54.23,54.23,0,0,0-3.39-20.53" fill="#bdb88e"/><path d="M27.45,37.37a52.78,52.78,0,0,0-5.54-7.09,7.84,7.84,0,0,0-3.45-2.46" fill="#bdb88e"/><path d="M79.62,84.44a17.88,17.88,0,0,1,3.62-7.72,56.32,56.32,0,0,1,9.44-10.19" fill="#a6b59e"/><path d="M80.47,83.5A65.45,65.45,0,0,0,76.4,58.86" fill="#a6b59e"/><path d="M80.11,81.79a62.8,62.8,0,0,0-6.66-8.5,9.12,9.12,0,0,0-4.13-3" fill="#a6b59e"/><path d="M102.74,21.21a9,9,0,0,1,1.81-3.87,28.47,28.47,0,0,1,4.72-5.09" fill="#a6b59e"/><path d="M103.16,20.73a32.59,32.59,0,0,0-2-12.32" fill="#a6b59e"/><path d="M103,19.88a31.73,31.73,0,0,0-3.32-4.25,4.65,4.65,0,0,0-2.07-1.48" fill="#a6b59e"/></svg>