<svg id="Layer_1" data-name="Layer 1" xmlns="http://www.w3.org/2000/svg" viewBox="0 0 128 128"><polygon points="128 31.55 128 71 128 99.47 0 99.47 0 99.45 0 45.64 0 0 128 0 128 31.55" fill="#869f75"/><g opacity="0.33"><ellipse cx="67.92" cy="26.92" rx="6.21" ry="2.09" fill="#696c6a"/><ellipse cx="62.45" cy="76.1" rx="8.1" ry="2.09" fill="#696c6a"/></g><g opacity="0.33"><path d="M109.56,89.67a218.16,218.16,0,0,1-27.34,1.81s-25.43-2.32-35.76-1.81c-1.57.08-3.13.19-4.66.31a3.4,3.4,0,0,1-3.65-3.2c-.35-6.71-.35-11.84-.35-11.84s2.32-25.43,1.81-35.76S37.45,19,37.8,13.43,37.8,0,37.8,0H23.25S17.35,4.49,20,17s-1.43,17.3,0,32.06,3.28,17.06,3.28,33.17a91.72,91.72,0,0,1-.38,9.25c-.67,6.65-2,7.55-2,15.58q0,1.41.06,2.73a29.29,29.29,0,0,0,3.4-.52c6.55-1.37,11-.92,15.8-.38a69.71,69.71,0,0,0,16.26.38C71.14,107.88,73.44,106,89.55,106s14.08,2.39,24.83,2.39S128,106,128,106V91.48S121.8,87.84,109.56,89.67Z" fill="#474a48"/></g><g opacity="0.33"><ellipse cx="66.92" cy="25.92" rx="6.21" ry="2.09" fill="#cfd6c5"/><ellipse cx="61.45" cy="75.1" rx="8.1" ry="2.09" fill="#cfd6c5"/></g><path d="M90,57.75A17.86,17.86,0,0,0,86.38,50a56.74,56.74,0,0,0-9.45-10.19" fill="#a6b59e"/><path d="M89.15,56.8a65.15,65.15,0,0,1,4.08-24.65" fill="#a6b59e"/><path d="M89.51,55.09a63.43,63.43,0,0,1,6.66-8.5,9.25,9.25,0,0,1,4.14-3" fill="#a6b59e"/><path d="M114.84,99.93c-10.75,0-13.46,2-29.57,2S67,96.44,52.19,98.78c-11.78,1.87-17.24,0-25.35,1.41a123.76,123.76,0,0,1-.78-14.92c0-16.11,5.5-18.32,3.16-33.08S30.33,32.59,26.06,20s0-20,0-20H0V128H128V101.94S125.58,99.93,114.84,99.93Z" fill="#7a7567"/><path d="M105.28,92.67a218.16,218.16,0,0,1-27.34,1.81s-25.43-2.32-35.76-1.81c-1.65.09-3.29.2-4.9.32a3.15,3.15,0,0,1-3.4-3c-.37-6.82-.36-12.07-.36-12.07s2.32-25.43,1.81-35.76.33-20.6-1.81-25.75c-2.35-5.69,0-16.43,0-16.43H19s-5.9,7.49-3.28,20-1.43,17.3,0,32.06S19,69.16,19,85.27a91.72,91.72,0,0,1-.38,9.25c-.68,6.65-2,7.55-2,15.58v0a2.37,2.37,0,0,0,2.81,2.32l.65-.13c6.55-1.37,11-.92,15.8-.38a69.69,69.69,0,0,0,16.26.38C66.86,110.88,69.16,109,85.27,109s14.08,2.39,24.83,2.39A61.93,61.93,0,0,0,128,109V94.48A52.9,52.9,0,0,0,105.28,92.67Z" fill="#677f62"/></svg>