<svg id="Layer_1" data-name="Layer 1" xmlns="http://www.w3.org/2000/svg" viewBox="0 0 128 128"><polygon points="0 31.55 0 71 0 99.47 128 99.47 128 99.45 128 45.64 128 0 0 0 0 31.55" fill="#869f75"/><g opacity="0.33"><ellipse cx="62.08" cy="26.92" rx="6.21" ry="2.09" fill="#696c6a"/><ellipse cx="67.55" cy="76.1" rx="8.1" ry="2.09" fill="#696c6a"/></g><g opacity="0.33"><path d="M108,16c2.62-12.55-3.28-16-3.28-16H90.14s-.36,6.87,0,12.43-1.29,15.42-1.8,25.75,1.8,35.76,1.8,35.76,0,4.89-.32,11.36a3.86,3.86,0,0,1-4.16,3.64q-2.07-.16-4.17-.27c-10.34-.51-35.77,1.81-35.77,1.81a218.16,218.16,0,0,1-27.34-1.81C6.15,86.84,0,90.48,0,90.48V105s2.82,2.39,13.57,2.39S22.28,105,38.39,105s18.42,1.85,33.18,3.28a69.6,69.6,0,0,0,16.25-.38c4.83-.54,9.25-1,15.8.38a29.45,29.45,0,0,0,3.41.52c0-.88,0-1.79,0-2.73,0-8-1.33-8.93-2-15.58a91.72,91.72,0,0,1-.38-9.25c0-16.11,1.85-18.41,3.28-33.17S105.35,28.6,108,16Z" fill="#474a48"/></g><g opacity="0.33"><ellipse cx="61.08" cy="25.92" rx="6.21" ry="2.09" fill="#cfd6c5"/><ellipse cx="66.55" cy="75.1" rx="8.1" ry="2.09" fill="#cfd6c5"/></g><path d="M33.73,57.75A18,18,0,0,1,37.36,50,56.32,56.32,0,0,1,46.8,39.83" fill="#bdb88e"/><path d="M34.58,56.8a65.14,65.14,0,0,0-4.07-24.65" fill="#bdb88e"/><path d="M34.22,55.09a63.43,63.43,0,0,0-6.66-8.5,9.22,9.22,0,0,0-4.13-3" fill="#bdb88e"/><path d="M105,0h-3s4.28,7.49,0,20-.82,17.39-3.16,32.15,3.16,17,3.16,33.08a123.76,123.76,0,0,1-.78,14.92c-8.11-1.36-13.57.46-25.35-1.41-14.76-2.34-17,3.16-33.08,3.16s-18.82-2-29.57-2-13.16,2-13.16,2V128H128V0Z" fill="#7a7567"/><path d="M112.31,20C114.93,7.49,109,0,109,0H94.48s-.36,10.87,0,16.43-1.29,15.42-1.81,25.75,1.81,35.76,1.81,35.76,0,5.29-.37,12.14A3.09,3.09,0,0,1,90.78,93c-1.63-.13-3.29-.24-5-.33-10.33-.51-35.76,1.81-35.76,1.81a218.16,218.16,0,0,1-27.34-1.81A52.9,52.9,0,0,0,0,94.48V109a61.93,61.93,0,0,0,17.9,2.39c10.75,0,8.72-2.39,24.83-2.39s18.41,1.85,33.17,3.28a69.69,69.69,0,0,0,16.26-.38c4.83-.54,9.25-1,15.8.38l.65.13a2.37,2.37,0,0,0,2.81-2.32v0c0-8-1.33-8.93-2-15.58a91.72,91.72,0,0,1-.38-9.25c0-16.11,1.85-18.41,3.28-33.17S109.69,32.6,112.31,20Z" fill="#677f62"/></svg>