<svg id="Layer_1" data-name="Layer 1" xmlns="http://www.w3.org/2000/svg" viewBox="0 0 128 128"><polygon points="0 87.4 0 36.63 0 0 128 0 128 0.01 128 69.27 128 128 0 128 0 87.4" fill="#869f75"/><path d="M38,102a17.84,17.84,0,0,0-3.62-7.71A56.09,56.09,0,0,0,25,84.13" fill="#a6b59e"/><path d="M37.16,101.05a65.21,65.21,0,0,1,4.07-24.58" fill="#a6b59e"/><path d="M37.52,99.35a63.35,63.35,0,0,1,6.65-8.48,9.27,9.27,0,0,1,4.13-3" fill="#a6b59e"/><path d="M98.33,86.64a9.08,9.08,0,0,0-1.81-3.86A29.13,29.13,0,0,0,91.8,77.7" fill="#bdb88e"/><path d="M97.9,86.17a32.46,32.46,0,0,1,2-12.3" fill="#bdb88e"/><path d="M98.08,85.31a32.36,32.36,0,0,1,3.33-4.24,4.62,4.62,0,0,1,2.06-1.47" fill="#bdb88e"/><path d="M55.9,31.37a9,9,0,0,0-1.81-3.86,29.13,29.13,0,0,0-4.72-5.08" fill="#bdb88e"/><path d="M55.47,30.9a32.38,32.38,0,0,1,2-12.29" fill="#bdb88e"/><path d="M55.65,30A32.36,32.36,0,0,1,59,25.8,4.62,4.62,0,0,1,61,24.33" fill="#bdb88e"/><g opacity="0.33"><ellipse cx="68.38" cy="110.47" rx="6.2" ry="2.08" fill="#696c6a"/><ellipse cx="89.13" cy="40.81" rx="10.73" ry="3.6" fill="#696c6a"/><ellipse cx="33.7" cy="55.77" rx="8.09" ry="2.08" fill="#696c6a"/></g><g opacity="0.33"><ellipse cx="67.38" cy="109.47" rx="6.2" ry="2.08" fill="#cfd6c5"/><ellipse cx="88.12" cy="39.81" rx="10.73" ry="3.6" fill="#cfd6c5"/><ellipse cx="32.7" cy="54.77" rx="8.09" ry="2.08" fill="#cfd6c5"/></g></svg>