<svg id="Layer_1" data-name="Layer 1" xmlns="http://www.w3.org/2000/svg" viewBox="0 0 128 128"><path d="M0,0H99.5V128H0V0Z" fill="#869f75"/><path d="M102,108c-4.27-12.55-.82-17.39-3.16-32.15s3.16-17,3.16-33.08-2-18.82-2-29.57S102,0,102,0H128V128H102S106.25,120.51,102,108Z" fill="#7a7567"/><path d="M28.21,101.48a13.78,13.78,0,0,0-2.79-5.94,43.55,43.55,0,0,0-7.26-7.84" fill="#a6b59e"/><path d="M27.56,100.75a50,50,0,0,1,3.13-19" fill="#a6b59e"/><path d="M27.83,99.44A49,49,0,0,1,33,92.9a7.05,7.05,0,0,1,3.18-2.27" fill="#a6b59e"/><path d="M61.41,31.6a9,9,0,0,0-1.81-3.87,28.49,28.49,0,0,0-4.72-5.09" fill="#bdb88e"/><path d="M61,31.12A32.56,32.56,0,0,1,63,18.8" fill="#bdb88e"/><path d="M61.17,30.27A31,31,0,0,1,64.5,26a4.54,4.54,0,0,1,2.07-1.48" fill="#bdb88e"/><g opacity="0.33"><path d="M100.33,0h4.36a61.93,61.93,0,0,1,2.39,17.9c0,10.75-2.39,8.72-2.39,24.83S106.54,61.14,108,75.9s-2.62,19.5,0,32.06-3.28,20-3.28,20H90.14s-.36-10.87,0-16.43-1.29-15.42-1.8-25.75,3-28.72,1.8-35.76S87,35,88.34,22.72C89.75,9.55,90.14,0,90.14,0Z" fill="#474a48"/></g><path d="M104.7,0h4.36s-5.56,7,1.46,21.1c2.46,11,.11,12.2-1.46,21.63-2.65,15.89,3.28,33.17,3.28,33.17s4.42,19.31,0,32.06a27.53,27.53,0,0,0-3.28,20H94.51s-.36-10.87,0-16.43S93.22,96.15,92.7,85.82s2.11-28.72,1.81-35.76S90,34.8,92.7,22.72A79.64,79.64,0,0,0,94.51,0Z" fill="#677f62"/><g opacity="0.33"><ellipse cx="34.35" cy="44.02" rx="9.07" ry="3.05" fill="#696c6a"/><ellipse cx="71.07" cy="104.33" rx="6.21" ry="2.09" fill="#696c6a"/></g><g opacity="0.33"><ellipse cx="33.35" cy="43.02" rx="9.07" ry="3.05" fill="#cfd6c5"/><ellipse cx="70.07" cy="103.33" rx="6.21" ry="2.09" fill="#cfd6c5"/></g></svg>