<svg id="Layer_1" data-name="Layer 1" xmlns="http://www.w3.org/2000/svg" viewBox="0 0 128 128"><polygon points="0 96.45 0 57 0 28.53 128 28.53 128 28.55 128 82.36 128 128 0 128 0 96.45" fill="#869f75"/><g opacity="0.33"><path d="M108,112.22c-2.62-12.55,1.44-17.29,0-32S104.76,63.1,104.76,47a91.94,91.94,0,0,1,.38-9.26c.68-6.64,2-7.55,2-15.57,0-.94,0-1.85-.05-2.74a31.89,31.89,0,0,0-3.41.53c-6.55,1.36-11,.91-15.8.38A69.6,69.6,0,0,0,71.64,20c-14.76,1.43-17.07,3.28-33.18,3.28s-14.08-2.39-24.82-2.39S0,23.24,0,23.24L.22,27.6,0,40.11s6,0,18.45-.52,21.24-.91,27.34-1.8,25.43,2.32,35.77,1.8c1.51-.07,3-.17,4.5-.29a3.55,3.55,0,0,1,3.81,3.36c.35,6.62.34,11.67.34,11.67s-2.32,25.43-1.8,35.76,2.16,20.18,1.8,25.75a120.9,120.9,0,0,0,0,12.16h14.55S110.66,124.78,108,112.22Z" fill="#474a48"/></g><path d="M36.5,95.85a18.1,18.1,0,0,0-3.63-7.73,57,57,0,0,0-9.44-10.19" fill="#bdb88e"/><path d="M35.65,94.91a65.23,65.23,0,0,1,4.07-24.66" fill="#bdb88e"/><path d="M36,93.2a64.52,64.52,0,0,1,6.66-8.51,9.15,9.15,0,0,1,4.14-3" fill="#bdb88e"/><path d="M105,0H0V26.06s2.42,2,13.16,2,13.46-2,29.57-2,18.32,5.5,33.08,3.16c11.78-1.87,17.24,0,25.35-1.41a123.76,123.76,0,0,1,.78,14.92c0,16.11-5.5,18.32-3.16,33.08s-1.11,19.6,3.16,32.15,0,20,0,20H128V0Z" fill="#7a7567"/><path d="M112.31,108c-2.62-12.56,1.43-17.3,0-32.06S109,58.84,109,42.73a91.72,91.72,0,0,1,.38-9.25c.68-6.65,2-7.55,2-15.58v0a2.37,2.37,0,0,0-2.81-2.31l-.65.13c-6.55,1.37-11,.92-15.8.38a69.69,69.69,0,0,0-16.26-.38C61.14,17.12,58.84,19,42.73,19S28.65,16.58,17.9,16.58A61.93,61.93,0,0,0,0,19V35.08s10.23,0,22.72.25S44,34.09,50.06,33.52s25.43,2.32,35.76,1.81c1.82-.09,3.63-.22,5.4-.36a2.65,2.65,0,0,1,2.87,2.51c.4,7.06.39,12.58.39,12.58s-2.32,25.43-1.81,35.76,2.16,20.19,1.81,25.75,0,16.43,0,16.43H109S114.93,120.51,112.31,108Z" fill="#677f62"/><g opacity="0.33"><ellipse cx="68.15" cy="110.64" rx="6.21" ry="2.09" fill="#696c6a"/><ellipse cx="33.41" cy="55.78" rx="8.1" ry="2.09" fill="#696c6a"/></g><g opacity="0.33"><ellipse cx="67.29" cy="109.79" rx="6.21" ry="2.09" fill="#cfd6c5"/><ellipse cx="32.56" cy="54.93" rx="8.1" ry="2.09" fill="#cfd6c5"/></g></svg>