<svg id="Layer_1" data-name="Layer 1" xmlns="http://www.w3.org/2000/svg" viewBox="0 0 128 128"><path d="M127.94,128H28.51V0H128V127.83Z" fill="#869f75"/><g opacity="0.33"><ellipse cx="78.07" cy="82.53" rx="11.85" ry="3.98" fill="#696c6a"/><ellipse cx="57.47" cy="28.83" rx="6.2" ry="2.09" fill="#696c6a"/></g><g opacity="0.33"><path d="M27.61,128H23.25a61.93,61.93,0,0,1-2.39-17.9c0-10.75,2.39-8.72,2.39-24.83S21.4,66.86,20,52.1,22.59,32.6,20,20,23.25,0,23.25,0H37.79s.36,10.87,0,16.43,1.29,15.42,1.8,25.75-1.8,35.76-1.8,35.76a217.2,217.2,0,0,0,1.8,27.34A53,53,0,0,1,37.79,128Z" fill="#474a48"/></g><path d="M26,20c4.27,12.55.82,17.39,3.16,32.15S26,69.16,26,85.27s2,18.82,2,29.57S26,128,26,128H0V0H26S21.76,7.49,26,20Z" fill="#7a7567"/><path d="M23.32,128H19a61.93,61.93,0,0,1-2.39-17.9c0-10.75,2.39-8.72,2.39-24.83S17.11,66.86,15.68,52.1s2.62-19.5,0-32.06S19,0,19,0H33.5s.35,10.87,0,16.43,1.28,15.42,1.8,25.75-1.8,35.76-1.8,35.76a91.89,91.89,0,0,0,1.8,27.34A42.2,42.2,0,0,1,33.5,128Z" fill="#677f62"/><g opacity="0.33"><ellipse cx="77.07" cy="81.52" rx="11.85" ry="3.98" fill="#cfd6c5"/><ellipse cx="56.47" cy="27.83" rx="6.2" ry="2.09" fill="#cfd6c5"/></g><path d="M102.26,29.92a14,14,0,0,0-2.79-6,43.82,43.82,0,0,0-7.26-7.83" fill="#a6b59e"/><path d="M101.6,29.19a50.25,50.25,0,0,1,3.13-19" fill="#a6b59e"/><path d="M101.88,27.88A47.69,47.69,0,0,1,107,21.34a7.18,7.18,0,0,1,3.19-2.28" fill="#a6b59e"/><path d="M60.08,61.52a8.91,8.91,0,0,0-1.81-3.86,28.55,28.55,0,0,0-4.72-5.1" fill="#bdb88e"/><path d="M59.65,61.05a32.81,32.81,0,0,1,2-12.33" fill="#bdb88e"/><path d="M59.83,60.19a32.45,32.45,0,0,1,3.33-4.25,4.6,4.6,0,0,1,2.07-1.48" fill="#bdb88e"/></svg>